<?xml version="1.0" encoding="iso-8859-1"?>
<!-- Generator: Adobe Illustrator 24.3.0, SVG Export Plug-In . SVG Version: 6.00 Build 0)  -->
<svg version="1.1" id="Capa_1" xmlns="http://www.w3.org/2000/svg" xmlns:xlink="http://www.w3.org/1999/xlink" x="0px" y="0px"
	 viewBox="0 0 512 512" style="enable-background:new 0 0 512 512;" xml:space="preserve">
<path style="fill:#00FFF8;" d="M410.5,133H379v-31.5c0-20.676-16.82-37.5-37.5-37.5h-240C80.824,64,64,80.824,64,101.5v240
	c0,20.676,16.824,37.5,37.5,37.5H133v31.5c0,20.68,16.824,37.5,37.5,37.5h240c20.68,0,37.5-16.82,37.5-37.5v-240
	C448.004,149.824,431.18,133,410.5,133L410.5,133z M101.5,364C89.094,364,79,353.906,79,341.5v-240C79,89.094,89.094,79,101.5,79
	h240c12.406,0,22.5,10.094,22.5,22.5v240c0,12.406-10.094,22.5-22.5,22.5H101.5z M433,410.5c0,12.406-10.094,22.5-22.5,22.5h-240
	c-12.406,0-22.5-10.094-22.5-22.5V379h193.5c20.68,0,37.5-16.824,37.5-37.5V148h31.5c12.406,0,22.5,10.094,22.5,22.5V410.5z
	 M433,410.5"/>
<path style="fill:#00FFF8;" d="M170.688,406.75h-0.204c-4.14,0-7.5,3.359-7.5,7.5c0,4.145,3.36,7.5,7.5,7.5h0.204
	c4.14,0,7.5-3.355,7.5-7.5C178.188,410.109,174.832,406.75,170.688,406.75L170.688,406.75z M170.688,406.75"/>
<path style="fill:#00FFF8;" d="M410.52,406.75H192.234c-4.14,0-7.5,3.359-7.5,7.5c0,4.145,3.36,7.5,7.5,7.5H410.52
	c4.14,0,7.5-3.355,7.5-7.5C418.02,410.109,414.66,406.75,410.52,406.75L410.52,406.75z M410.52,406.75"/>
<path style="fill:#00FFF8;" d="M146.527,90.25h-0.203c-4.144,0-7.5,3.359-7.5,7.5c0,4.141,3.356,7.5,7.5,7.5h0.203
	c4.141,0,7.5-3.359,7.5-7.5C154.027,93.609,150.668,90.25,146.527,90.25L146.527,90.25z M146.527,90.25"/>
<path style="fill:#00FFF8;" d="M124.777,90.25H101.5c-4.141,0-7.5,3.359-7.5,7.5c0,4.141,3.359,7.5,7.5,7.5h23.277
	c4.141,0,7.5-3.359,7.5-7.5C132.277,93.609,128.918,90.25,124.777,90.25L124.777,90.25z M124.777,90.25"/>
<path style="fill:#00FFF8;" d="M284.113,214.848c-1.781-6.602-6.027-12.11-11.941-15.508l-36.688-21.18
	c-0.367-0.242-0.738-0.469-1.113-0.683l-36.594-21.129c-4.191-2.766-9.066-4.227-14.109-4.227
	c-14.152,0-25.668,11.516-25.668,25.668v87.461c0,0.305,0.02,0.605,0.055,0.902c0.144,4.184,1.328,8.293,3.437,11.938
	c4.567,7.887,13.07,12.789,22.192,12.789c4.492,0,8.925-1.195,12.816-3.449l37.871-21.868c0.215-0.121,0.422-0.253,0.617-0.398
	l36.914-21.309c4.032-2.25,7.383-5.562,9.696-9.585C285,228.344,285.895,221.445,284.113,214.848L284.113,214.848z M268.594,226.797
	c-0.965,1.672-2.356,3.051-4.028,3.976c-0.039,0.02-0.074,0.043-0.113,0.063l-37.598,21.707c-0.214,0.125-0.421,0.258-0.621,0.398
	l-37.242,21.504c-1.617,0.938-3.453,1.434-5.308,1.434c-3.786,0-7.317-2.031-9.211-5.305c-0.942-1.621-1.434-3.461-1.434-5.316
	c0-0.258-0.012-0.512-0.039-0.762v-86.707c0-5.879,4.785-10.668,10.668-10.668c2.141,0,4.195,0.629,5.953,1.813
	c0.145,0.101,0.293,0.195,0.445,0.281l36.821,21.258c0.183,0.109,0.359,0.218,0.535,0.336c0.125,0.082,0.254,0.16,0.383,0.234
	l36.883,21.297c2.453,1.406,4.207,3.687,4.945,6.418C270.371,221.492,270,224.344,268.594,226.797L268.594,226.797z
	 M268.594,226.797"/>
</svg>
