<?xml version="1.0" encoding="utf-8"?>
<!-- Generator: Adobe Illustrator 24.3.0, SVG Export Plug-In . SVG Version: 6.00 Build 0)  -->
<svg version="1.1" id="Capa_1" xmlns="http://www.w3.org/2000/svg" xmlns:xlink="http://www.w3.org/1999/xlink" x="0px" y="0px"
	 viewBox="0 0 200 200" style="enable-background:new 0 0 200 200;" xml:space="preserve">
<style type="text/css">
	.st0{fill:#00FFFF;}
</style>
<path class="st0" d="M91.1,164.8c-0.9,0-1.7,0.4-2.3,1c-0.6,0.6-1,1.5-1,2.3c0,0.9,0.4,1.7,1,2.3c0.6,0.6,1.5,1,2.3,1s1.7-0.4,2.3-1
	c0.6-0.6,1-1.5,1-2.3c0-0.9-0.4-1.7-1-2.3C92.8,165.1,92,164.8,91.1,164.8L91.1,164.8z M91.1,164.8"/>
<path class="st0" d="M190.5,60c-4.7-4.7-12.4-4.7-17.1,0l-15.2,15.2V26c0-6.2-5.1-11.3-11.3-11.3H35.3c-6.2,0-11.3,5.1-11.3,11.3
	v147.4c0,6.2,5.1,11.3,11.3,11.3h111.5c6.2,0,11.3-5.1,11.3-11.3v-64l32.3-32.3C195.2,72.4,195.2,64.7,190.5,60L190.5,60z M151.5,26
	v55.8l-6.6,6.6V31.3c0-1.8-1.5-3.3-3.3-3.3h-22.2v-6.6h27.5C149.4,21.4,151.5,23.5,151.5,26L151.5,26z M133.4,117l4.5-10.1l5.6,5.6
	L133.4,117z M112.7,21.4v13.5c0,2.1-1.7,3.7-3.7,3.7H73.2c-2.1,0-3.7-1.7-3.7-3.7V21.4H112.7z M146.9,178H35.3
	c-2.6,0-4.6-2.1-4.6-4.6V26c0-2.6,2.1-4.6,4.6-4.6h27.5V28H40.6c-1.8,0-3.3,1.5-3.3,3.3v136.8c0,1.8,1.5,3.3,3.3,3.3h37.2
	c1.8,0,3.3-1.5,3.3-3.3c0-1.8-1.5-3.3-3.3-3.3H44V34.6h18.9v0.2c0,5.7,4.7,10.4,10.4,10.4H109c5.7,0,10.4-4.7,10.4-10.4v-0.2h18.9
	v60.4l-3.8,3.8c-0.3,0.3-0.5,0.6-0.7,1l-10,22.4c-0.6,1.3-0.3,2.7,0.7,3.7c0.6,0.6,1.5,1,2.3,1c0.5,0,0.9-0.1,1.3-0.3l10-4.5v42.6
	h-33.9c-1.8,0-3.3,1.5-3.3,3.3c0,1.8,1.5,3.3,3.3,3.3h37.2c1.8,0,3.3-1.5,3.3-3.3v-48.9l5.7-2.5c0.4-0.2,0.7-0.4,0.9-0.6v57.4
	C151.5,176,149.4,178,146.9,178L146.9,178z M173.4,84.8l-24.2,24.2l-7.7-7.7l29.9-29.9l7.7,7.7L173.4,84.8z M185.8,72.4l-1.9,1.9
	l-7.7-7.7l1.9-1.9c2.1-2.1,5.6-2.1,7.7,0C187.9,66.8,187.9,70.3,185.8,72.4L185.8,72.4z M185.8,72.4"/>
<path class="st0" d="M77.8,54.6H56.6c-1.8,0-3.3,1.5-3.3,3.3v21.2c0,1.8,1.5,3.3,3.3,3.3h21.2c1.8,0,3.3-1.5,3.3-3.3V57.9
	C81.1,56,79.7,54.6,77.8,54.6L77.8,54.6z M74.5,75.8H59.9V61.2h14.6V75.8z M74.5,75.8"/>
<path class="st0" d="M77.8,91.1H56.6c-1.8,0-3.3,1.5-3.3,3.3v21.2c0,1.8,1.5,3.3,3.3,3.3h21.2c1.8,0,3.3-1.5,3.3-3.3V94.4
	C81.1,92.6,79.7,91.1,77.8,91.1L77.8,91.1z M74.5,112.3H59.9V97.7h14.6V112.3z M74.5,112.3"/>
<path class="st0" d="M77.8,127.6H56.6c-1.8,0-3.3,1.5-3.3,3.3v21.2c0,1.8,1.5,3.3,3.3,3.3h21.2c1.8,0,3.3-1.5,3.3-3.3v-21.2
	C81.1,129.1,79.7,127.6,77.8,127.6L77.8,127.6z M74.5,148.8H59.9v-14.6h14.6V148.8z M74.5,148.8"/>
<path class="st0" d="M101.6,78.3c0.6,0.6,1.5,1,2.3,1c0.8,0,1.7-0.3,2.3-1l15-15c1.3-1.3,1.3-3.4,0-4.7c-1.3-1.3-3.4-1.3-4.7,0
	l-12.6,12.6l-5-5c-1.3-1.3-3.4-1.3-4.7,0c-1.3,1.3-1.3,3.4,0,4.7L101.6,78.3z M101.6,78.3"/>
<path class="st0" d="M101.6,114.9c0.6,0.6,1.5,1,2.3,1c0.9,0,1.7-0.3,2.3-1l15-15c1.3-1.3,1.3-3.4,0-4.7c-1.3-1.3-3.4-1.3-4.7,0
	l-12.6,12.6l-5-5c-1.3-1.3-3.4-1.3-4.7,0c-1.3,1.3-1.3,3.4,0,4.7L101.6,114.9z M101.6,114.9"/>
<path class="st0" d="M107.7,146.2l5.1,5.1c0.6,0.6,1.5,1,2.3,1c0.8,0,1.7-0.3,2.3-1c1.3-1.3,1.3-3.4,0-4.7l-5.1-5.1l5.1-5.1
	c1.3-1.3,1.3-3.4,0-4.7c-1.3-1.3-3.4-1.3-4.7,0l-5.1,5.1l-5.1-5.1c-1.3-1.3-3.4-1.3-4.7,0c-1.3,1.3-1.3,3.4,0,4.7l5.1,5.1l-5.1,5.1
	c-1.3,1.3-1.3,3.4,0,4.7c0.6,0.6,1.5,1,2.3,1c0.8,0,1.7-0.3,2.3-1L107.7,146.2z M107.7,146.2"/>
</svg>
