<?xml version="1.0" encoding="iso-8859-1"?>
<!-- Generator: Adobe Illustrator 24.3.0, SVG Export Plug-In . SVG Version: 6.00 Build 0)  -->
<svg version="1.1" id="Capa_1" xmlns="http://www.w3.org/2000/svg" xmlns:xlink="http://www.w3.org/1999/xlink" x="0px" y="0px"
	 viewBox="0 0 512 512" style="enable-background:new 0 0 512 512;" xml:space="preserve">
<g>
	<path style="fill:#00FFF8;" d="M192.347,86.5c-3.106,0-5.625,2.52-5.625,5.625s2.519,5.625,5.625,5.625
		c3.105,0,5.625-2.52,5.625-5.625S195.452,86.5,192.347,86.5L192.347,86.5z M214.847,86.5c-3.106,0-5.625,2.52-5.625,5.625
		s2.519,5.625,5.625,5.625c3.105,0,5.625-2.52,5.625-5.625S217.952,86.5,214.847,86.5L214.847,86.5z M169.847,86.5
		c-3.106,0-5.625,2.52-5.625,5.625s2.519,5.625,5.625,5.625c3.105,0,5.625-2.52,5.625-5.625S172.952,86.5,169.847,86.5L169.847,86.5
		z M435.484,86.5h-44.028v-7.875c0-8.063-6.562-14.625-14.625-14.625H156.347c-8.063,0-14.625,6.562-14.625,14.625v17.656h-39.008
		c-15.508,0-28.125,12.617-28.125,28.125v211.813c0,15.508,12.617,28.125,28.125,28.125h131.539l-4.285,31.844h-6.27
		c-5.203,0-9.808,3.503-11.199,8.515l-7.922,28.567c-0.98,3.527-0.269,7.226,1.946,10.14c2.218,2.918,5.589,4.59,9.254,4.59h101.624
		c3.665,0,7.036-1.672,9.254-4.59c2.215-2.914,2.926-6.613,1.95-10.14l-7.926-28.563c-1.391-5.016-5.996-8.519-11.199-8.519h-6.27
		l-4.285-31.844h131.539c15.508,0,28.125-12.617,28.125-28.125V109.605C458.589,96.863,448.226,86.5,435.484,86.5L435.484,86.5z
		 M152.972,120.25h91.117c3.105,0,5.625-2.52,5.625-5.625s-2.52-5.625-5.625-5.625h-91.117V78.625c0-1.859,1.515-3.375,3.375-3.375
		h220.484c1.86,0,3.375,1.516,3.375,3.375V86.5h-37.078c-12.539,0-22.766,10.039-23.09,22.5h-49.699
		c-3.105,0-5.625,2.52-5.625,5.625s2.52,5.625,5.625,5.625h49.684v29.203c0,12.738,10.363,23.106,23.105,23.106h11.145v10.793
		c0,3.226,1.929,6.113,4.914,7.351c2.949,1.223,6.371,0.57,8.668-1.726l12.351-12.352v87.797c0,3.105,2.52,5.625,5.625,5.625
		c3.11,0,5.625-2.52,5.625-5.625v-91.863h33.383v146.785h-33.383v-28.672c0-3.106-2.515-5.625-5.625-5.625
		c-3.105,0-5.625,2.519-5.625,5.625v28.672h-44.168v-33.27c0-15.234-9.16-28.679-23.332-34.25l-15.199-5.98
		c-3.883-1.528-6.391-5.211-6.391-9.383v-6.356c9.442-7.335,15.535-18.789,15.535-31.648v-42c0-13.035-10.605-23.641-23.64-23.641
		h-32.84c-13.039,0-23.644,10.606-23.644,23.641v42c0,12.859,6.093,24.313,15.539,31.648v6.356c0,4.172-2.512,7.855-6.395,9.383
		l-15.195,5.98c-14.176,5.571-23.336,19.016-23.336,34.25v33.27h-44.168V120.25z M296.663,298.164c-3.105,0-5.625,2.52-5.625,5.625
		v15.555H242.14v-15.555c0-3.105-2.52-5.625-5.625-5.625c-3.11,0-5.625,2.52-5.625,5.625v15.555h-22.5v-33.27
		c0-10.578,6.359-19.914,16.203-23.781l13.836-5.445c7.492,7.351,17.535,11.496,28.16,11.496c10.621,0,20.664-4.145,28.156-11.496
		l13.84,5.445c9.844,3.867,16.203,13.203,16.203,23.781v33.27h-22.5v-15.555C302.288,300.684,299.769,298.164,296.663,298.164
		L296.663,298.164z M241.991,189.887c7.907,0,15.727-1.325,23.043-3.942c4.235-1.515,8.325-3.461,12.196-5.8
		c2.023,2.277,4.828,4.687,8.597,6.507c3.418,1.653,6.735,2.368,9.574,2.614v9.195c0,15.887-12.921,28.812-28.812,28.812
		c-15.887,0-28.812-12.925-28.812-28.812v-8.711C239.183,189.836,240.589,189.887,241.991,189.887L241.991,189.887z
		 M237.777,178.484v-22.027c0-6.832,5.558-12.391,12.39-12.391h32.844c6.832,0,12.39,5.559,12.39,12.391v21.496
		c-1.445-0.211-3.042-0.637-4.683-1.43c-3.359-1.625-5.43-4.054-6.57-5.808c-1.039-1.59-2.704-2.715-4.567-3.086
		c-1.871-0.371-3.844,0.035-5.418,1.113c-4.027,2.762-8.371,4.985-12.918,6.61C253.851,177.996,245.823,179.055,237.777,178.484
		L237.777,178.484z M285.066,250.434c-5.157,4.273-11.649,6.66-18.477,6.66s-13.32-2.387-18.477-6.66
		c3.289-3.786,5.204-8.688,5.204-13.969v-0.211c4.156,1.465,8.621,2.269,13.273,2.269c4.652,0,9.117-0.804,13.273-2.269v0.211
		C279.862,241.746,281.777,246.648,285.066,250.434L285.066,250.434z M309.48,407.438c0.168,0,0.316,0.109,0.359,0.273l7.922,28.562
		c0.07,0.184-0.164,0.497-0.36,0.477H215.777c-0.196,0.02-0.434-0.289-0.36-0.477l7.922-28.562c0.047-0.164,0.195-0.277,0.359-0.277
		h85.782V407.438z M241.319,396.188l4.282-31.844h41.972l4.286,31.844H241.319z M447.339,336.219c0,9.304-7.57,16.875-16.875,16.875
		h-327.75c-9.305,0-16.875-7.571-16.875-16.875V124.406c0-9.304,7.57-16.875,16.875-16.875h39.008v11.25h-36.008
		c-4.754,0-8.625,3.867-8.625,8.625v194.563c0,4.758,3.871,8.625,8.625,8.625h321.75c4.754,0,8.625-3.867,8.625-8.625V172.543
		c4.102-0.105,7.945-1.281,11.25-3.266V336.219z M141.722,130.031v189.313h-33.383V130.031H141.722z M447.339,149.453
		c0,6.535-5.316,11.856-11.855,11.856c-6.278,0-45.524,0-51.852,0c-2.59,0-5.027,1.007-6.859,2.843l-11.25,11.246v-4.386
		c0-5.352-4.352-9.703-9.704-9.703h-12.691c-6.535,0-11.855-5.317-11.855-11.856v-39.848c0-6.535,5.32-11.855,11.855-11.855h92.356
		c6.539,0,11.855,5.316,11.855,11.855V149.453z M427.515,135.152h-76.418c-3.106,0-5.625,2.52-5.625,5.625
		c0,3.11,2.519,5.625,5.625,5.625h76.418c3.105,0,5.625-2.515,5.625-5.625C433.14,137.672,430.62,135.152,427.515,135.152
		L427.515,135.152z M427.515,112.652h-76.418c-3.106,0-5.625,2.52-5.625,5.625c0,3.11,2.519,5.625,5.625,5.625h76.418
		c3.105,0,5.625-2.515,5.625-5.625C433.14,115.172,430.62,112.652,427.515,112.652L427.515,112.652z M427.515,112.652"/>
</g>
</svg>
