<?xml version="1.0" encoding="utf-8"?>
<!-- Generator: Adobe Illustrator 24.3.0, SVG Export Plug-In . SVG Version: 6.00 Build 0)  -->
<svg version="1.1" id="Capa_1" xmlns="http://www.w3.org/2000/svg" xmlns:xlink="http://www.w3.org/1999/xlink" x="0px" y="0px"
	 viewBox="0 0 200 200" style="enable-background:new 0 0 200 200;" xml:space="preserve">
<style type="text/css">
	.st0{fill:#00FFFF;}
</style>
<path class="st0" d="M184.9,190.8V32.3c0-11.5-9.4-20.9-20.8-20.9H36c-11.5,0-20.8,9.4-20.8,20.9v113.2c0,11.5,9.4,20.9,20.8,20.9
	h103.9l35.6,28.9C179.2,198.3,184.9,195.7,184.9,190.8L184.9,190.8z M173.3,178.6c-28.8-22.8-27.8-23.8-31.4-23.8H36
	c-5.1,0-9.3-4.2-9.3-9.3V32.3c0-5.1,4.2-9.3,9.3-9.3h128c5.1,0,9.3,4.2,9.3,9.3V178.6z M173.3,178.6"/>
<path class="st0" d="M115.1,49.2C83.2,48.9,63.2,45.6,47,71.5c-9.2,14.8-11.2,40.2-7.5,48.4c4.5,10.1,15.2,15.5,33.4,17
	c4.9,0.3,6-4.3,11.1-9.7c9.2,1.9,22.7,1.9,32,0c5.4,5.9,6.4,10,11.1,9.7c18.3-1.5,28.9-6.9,33.4-17c3.7-8.2,1.7-33.7-7.5-48.4
	C137.9,47.3,115.5,49.1,115.1,49.2L115.1,49.2z M150,115.2c-0.9,2-3.5,7.9-20.8,9.9l-0.4-0.4c0.4-0.3,10.3-7.5,10.7-7.9
	c5.3-4.9-1.5-13.2-7.4-8.9c0,0-11.9,9.4-32.1,9.4c-21.3,0-30.2-8.3-32.1-9.4c-5.8-4.3-12.7,4-7.4,8.9c0.4,0.4,10.2,7.5,10.7,7.9
	l-0.4,0.4c-17.3-2-19.9-7.9-20.8-9.9c-1.6-3.7-1.1-25,6.8-37.5c6.4-10.3,15.8-16.9,28.2-16.9c29.5-0.7,45.5-3.5,58.3,16.9
	C151,90.1,151.6,111.5,150,115.2L150,115.2z M150,115.2"/>
<path class="st0" d="M81.2,79.3c-17.6,0-17.6,26.7,0,26.7C98.8,106,98.8,79.3,81.2,79.3L81.2,79.3z M79.9,91.3c0.6-0.8,3-0.4,3,1.4
	C82.9,96.1,77.6,93.9,79.9,91.3L79.9,91.3z M79.9,91.3"/>
<path class="st0" d="M105.6,92.7c0,17.7,26.5,17.8,26.5,0C132.1,75,105.6,74.9,105.6,92.7L105.6,92.7z M117.6,91.3
	c0.6-0.8,2.9-0.7,2.9,1.4C120.5,96.2,115.3,93.9,117.6,91.3L117.6,91.3z M117.6,91.3"/>
</svg>
