<?xml version="1.0" encoding="utf-8"?>
<!-- Generator: Adobe Illustrator 24.3.0, SVG Export Plug-In . SVG Version: 6.00 Build 0)  -->
<svg version="1.1" id="Capa_1" xmlns="http://www.w3.org/2000/svg" xmlns:xlink="http://www.w3.org/1999/xlink" x="0px" y="0px"
	 viewBox="0 0 200 200" style="enable-background:new 0 0 200 200;" xml:space="preserve">
<style type="text/css">
	.st0{fill:#00FFFF;}
</style>
<path class="st0" d="M171.3,33.8h-54.8v-5.5c0-6-4.9-11-11-11H28.8c-6,0-11,4.9-11,11v60.3c0,30.1,28.8,30.1,38.4,30.1
	c1.6,0,2.7-1.1,2.7-2.7s-1.1-2.7-2.7-2.7c-6,0-11-4.9-11-11c0-0.3,0-0.8,0-1.1c0.8-5.8,5.8-9.9,11.5-9.9h37.8v5.5H69.9
	c-1.6,0-2.7,1.1-2.7,2.7c0,6.3,2.5,12.3,6.6,16.7c-0.8,2.7-1.1,5.2-1.1,7.9c0,11,6.6,20.8,16.4,25.2c0,1.6-0.8,4.9-8.2,4.9
	c-7.7,0-13.7,6-13.7,13.7v13.7h5.5v-13.7c0-4.4,3.3-7.9,7.7-8.2l13.4,6.6c1.1,0.5,2.5,1.1,3.6,1.4v14h5.5v-14
	c1.4-0.3,2.5-0.5,3.6-1.1l13.4-6.6c4.4,0.3,7.7,3.8,7.7,8.2v13.7h5.5v-13.7c0-7.7-6-13.7-13.7-13.7c-7.4,0-8.2-3.3-8.2-4.9
	c10.4-4.4,16.7-14.8,16.4-26c0-0.5,0-1.6,0-1.9c0-3.8-0.8-7.7-2.7-11h18.4c5.8,0,10.7,4.1,11.5,9.9c0.5,6-3.8,11.5-9.9,12.1
	c-0.3,0-0.8,0-1.1,0c-1.6,0-2.7,1.1-2.7,2.7s1.1,2.7,2.7,2.7c9.6,0,38.4,0,38.4-30.1V44.8C182.3,38.7,177.3,33.8,171.3,33.8z
	 M39.7,100.7c-0.3,4.1,0.8,8.2,3.3,11.5c-13.4-2.7-19.7-10.1-19.7-23.6V28.3c0-3,2.5-5.5,5.5-5.5h76.7c3,0,5.5,2.5,5.5,5.5v52.1
	c0,3-2.5,5.5-5.5,5.5H56.7C48.2,85.9,40.8,92.2,39.7,100.7z M102.8,102.3c9.6,0,17.5,7.1,18.9,16.4H91.8c-9.6,0-17.5-7.1-18.9-16.4
	H102.8z M107.4,144.8c-1.1,0.3-1.9,1.4-1.9,2.5v1.6c-0.3,3.8,1.9,7.7,5.5,9.3l-7.1,3.6c-2.5,1.1-5.5,1.1-7.9,0l-6.9-3.6
	c3.6-1.6,5.8-5.5,5.5-9.3v-1.4c0-1.1-0.8-2.2-1.9-2.5c-8.8-3.3-14.5-11.5-14.5-20.8c0-1.4,0-2.7,0.3-3.8c3.8,2.5,8.5,3.8,13.4,3.8
	H122C122,133.6,116.2,141.8,107.4,144.8z M176.8,107.8c0,13.4-6.3,20.8-19.7,23.6c2.5-3.3,3.6-7.4,3.3-11.5
	c-1.1-8.5-8.2-14.8-17-14.8h-22.2c-4.7-5.2-11.2-8.2-18.4-8.2H100v-5.5h5.5c6,0,11-4.9,11-11V39.3h54.8c3,0,5.5,2.5,5.5,5.5
	L176.8,107.8L176.8,107.8z"/>
<path class="st0" d="M80.9,47.5h-2.7c-1.6,0-2.7-1.1-2.7-2.7v-8.2c0-4.7-3.6-8.2-8.2-8.2s-8.2,3.6-8.2,8.2v8.2
	c0,1.6-1.1,2.7-2.7,2.7c0-1.6-1.1-2.7-2.7-2.7h-11c-1.6,0-2.7,1.1-2.7,2.7v30.1c0,1.6,1.1,2.7,2.7,2.7h11c1.6,0,2.7-1.1,2.7-2.7
	h24.7c4.7,0,8.2-3.6,8.2-8.2V55.7C89.1,51.1,85.5,47.5,80.9,47.5z M50.7,74.9h-5.5V50.2h5.5V74.9z M83.6,69.4c0,1.6-1.1,2.7-2.7,2.7
	H56.2V53c4.7,0,8.2-3.6,8.2-8.2v-8.2c0-1.6,1.1-2.7,2.7-2.7s2.7,1.1,2.7,2.7v8.2c0,4.7,3.6,8.2,8.2,8.2h2.7c1.6,0,2.7,1.1,2.7,2.7
	V69.4z"/>
<path class="st0" d="M168.6,44.8h-11c-1.6,0-2.7,1.1-2.7,2.7h-24.7c-4.7,0-8.2,3.6-8.2,8.2v13.7c0,4.7,3.6,8.2,8.2,8.2h2.7
	c1.6,0,2.7,1.1,2.7,2.7v8.2c0,4.7,3.6,8.2,8.2,8.2s8.2-3.6,8.2-8.2v-8.2c0-1.6,1.1-2.7,2.7-2.7c0,1.6,1.1,2.7,2.7,2.7h11
	c1.6,0,2.7-1.1,2.7-2.7V47.5C171.3,45.9,170.2,44.8,168.6,44.8z M146.6,80.4v8.2c0,1.6-1.1,2.7-2.7,2.7s-2.7-1.1-2.7-2.7v-8.2
	c0-4.7-3.6-8.2-8.2-8.2h-2.7c-1.6,0-2.7-1.1-2.7-2.7V55.7c0-1.6,1.1-2.7,2.7-2.7h24.7v19.2C150.2,72.2,146.6,75.7,146.6,80.4z
	 M165.8,74.9h-5.5V50.2h5.5V74.9z"/>
<rect x="119.2" y="88.6" class="st0" width="11" height="5.5"/>
<polygon class="st0" points="91.8,28.3 86.3,28.3 86.3,31.1 83.6,31.1 83.6,36.5 86.3,36.5 86.3,39.3 91.8,39.3 91.8,36.5 
	94.6,36.5 94.6,31.1 91.8,31.1 "/>
</svg>
