<?xml version="1.0" encoding="utf-8"?>
<!-- Generator: Adobe Illustrator 24.3.0, SVG Export Plug-In . SVG Version: 6.00 Build 0)  -->
<svg version="1.1" id="Capa_1" xmlns="http://www.w3.org/2000/svg" xmlns:xlink="http://www.w3.org/1999/xlink" x="0px" y="0px"
	 viewBox="0 0 200 200" style="enable-background:new 0 0 200 200;" xml:space="preserve">
<style type="text/css">
	.st0{fill:#00FFFF;}
</style>
<path class="st0" d="M177.6,37.6c-0.1-0.1-19.6-18.7-19.6-18.7c-0.7-0.7-1.5-1.5-3-1.5H76.4c-2.3,0-4.2,1.9-4.2,4.2v12.8l-27.7,4.7
	c-2.2,0.4-3.7,2.5-3.3,4.7l1.4,8.2c-9,3-18.3,6.2-27.2,9.4c-2.1,0.8-3.2,3.1-2.5,5.2L30.8,116c0.4,1,1.3,1.6,2.3,1.6
	c0.3,0,0.6,0,0.8-0.1c1.3-0.5,1.9-1.8,1.5-3.1L17.9,65.7c8.4-3,17.1-6,25.6-8.8l8.4,48.8l9.6,56.2c0.3,2,2.1,3.4,4.1,3.4
	c0.2,0,0.4,0,0.7-0.1l26.1-4.5l20.4-3.5l-30.6,11l-24.2,8.7l-18.8-52.2c-0.5-1.3-1.8-1.9-3.1-1.5c-1.3,0.5-1.9,1.8-1.5,3.1l19,52.9
	c0.6,1.7,2.2,2.7,3.9,2.7c0.5,0,0.9-0.1,1.4-0.2l24.9-8.9l56.5-20.3l10.8-1.8h23.9c2.3,0,4.2-1.9,4.2-4.2V40.3
	C179,38.9,178.2,38.1,177.6,37.6L177.6,37.6z M171.2,38.2H159l-0.3,0c-0.6,0-1.9,0-2.3-0.3c-0.1-0.1-0.2-0.3-0.2-0.8l0-13.1
	L171.2,38.2z M174.1,145.8h-97V98.3c0-1.3-1.1-2.4-2.4-2.4c-1.3,0-2.4,1.1-2.4,2.4v48.1c0,2.3,1.9,4.2,4.2,4.2h45.7l-30.7,5.3
	l-25.3,4.3l-9.5-55.4L46.2,43.8l26.1-4.5V87c0,1.3,1.1,2.4,2.4,2.4c1.3,0,2.4-1.1,2.4-2.4V22.3h74.2l0,14.7c0,1.8,0.5,3.2,1.6,4.3
	c1.6,1.6,4,1.7,5.4,1.7c0.1,0,0.2,0,0.4,0l15.4,0V145.8z M174.1,145.8"/>
<path class="st0" d="M88.9,55.2c0,1.3,1.1,2.4,2.4,2.4h69.6c1.3,0,2.4-1.1,2.4-2.4c0-1.3-1.1-2.4-2.4-2.4H91.3
	C90,52.8,88.9,53.9,88.9,55.2L88.9,55.2z M88.9,55.2"/>
<path class="st0" d="M160.9,70.1H91.3c-1.3,0-2.4,1.1-2.4,2.4c0,1.3,1.1,2.4,2.4,2.4h69.6c1.3,0,2.4-1.1,2.4-2.4
	C163.4,71.2,162.3,70.1,160.9,70.1L160.9,70.1z M160.9,70.1"/>
<path class="st0" d="M160.9,87.4H91.3c-1.3,0-2.4,1.1-2.4,2.4c0,1.3,1.1,2.4,2.4,2.4h69.6c1.3,0,2.4-1.1,2.4-2.4
	C163.4,88.5,162.3,87.4,160.9,87.4L160.9,87.4z M160.9,87.4"/>
<path class="st0" d="M160.9,104.7H91.3c-1.3,0-2.4,1.1-2.4,2.4c0,1.3,1.1,2.4,2.4,2.4h69.6c1.3,0,2.4-1.1,2.4-2.4
	C163.4,105.8,162.3,104.7,160.9,104.7L160.9,104.7z M160.9,104.7"/>
<path class="st0" d="M160.9,122H91.3c-1.3,0-2.4,1.1-2.4,2.4c0,1.3,1.1,2.4,2.4,2.4h69.6c1.3,0,2.4-1.1,2.4-2.4
	C163.4,123.1,162.3,122,160.9,122L160.9,122z M160.9,122"/>
</svg>
