<?xml version="1.0" encoding="utf-8"?>
<!-- Generator: Adobe Illustrator 24.3.0, SVG Export Plug-In . SVG Version: 6.00 Build 0)  -->
<svg version="1.1" id="Capa_1" xmlns="http://www.w3.org/2000/svg" xmlns:xlink="http://www.w3.org/1999/xlink" x="0px" y="0px"
	 viewBox="0 0 200 200" style="enable-background:new 0 0 200 200;" xml:space="preserve">
<style type="text/css">
	.st0{fill:#00FFFF;}
</style>
<path class="st0" d="M116.3,157.2H24.9c-1.7,0-3-1.4-3-3V54h105.8c1.5,0,2.7-1.2,2.7-2.7c0-1.5-1.2-2.7-2.7-2.7H21.9V34.2
	c0-1.7,1.4-3,3-3h137c1.7,0,3,1.4,3,3v14.5h-8.7c-1.5,0-2.7,1.2-2.7,2.7c0,1.5,1.2,2.7,2.7,2.7h8.7v54.4c0,1.5,1.2,2.7,2.7,2.7
	s2.7-1.2,2.7-2.7V34.2c0-4.6-3.8-8.4-8.4-8.4h-137c-4.6,0-8.4,3.8-8.4,8.4v119.9c0,4.6,3.8,8.4,8.4,8.4h91.4c1.5,0,2.7-1.2,2.7-2.7
	C119,158.4,117.8,157.2,116.3,157.2z"/>
<path class="st0" d="M142.4,46.2h-5.7c-1.5,0-2.7,1.2-2.7,2.7c0,1.5,1.2,2.7,2.7,2.7h5.7c1.5,0,2.7-1.2,2.7-2.7
	C145,47.4,143.8,46.2,142.4,46.2z"/>
<path class="st0" d="M28.2,34.7c-1.5,0-2.7,1.2-2.7,2.7s1.2,2.7,2.7,2.7c1.5,0,2.7-1.2,2.7-2.7S29.7,34.7,28.2,34.7L28.2,34.7z"/>
<path class="st0" d="M51,34.7c-1.5,0-2.7,1.2-2.7,2.7s1.2,2.7,2.7,2.7s2.7-1.2,2.7-2.7S52.5,34.7,51,34.7L51,34.7z"/>
<path class="st0" d="M39.5,34.7c-1.5,0-2.7,1.2-2.7,2.7s1.2,2.7,2.7,2.7s2.7-1.2,2.7-2.7S41.1,34.7,39.5,34.7L39.5,34.7z"/>
<path class="st0" d="M156.5,37.4c0-1.5-1.2-2.7-2.7-2.7H62.4c-1.5,0-2.7,1.2-2.7,2.7s1.2,2.7,2.7,2.7h91.4
	C155.3,40.1,156.5,38.9,156.5,37.4z"/>
<path class="st0" d="M156.3,117.2c-17.2,0-31.2,14-31.2,31.2s14,31.2,31.2,31.2s31.2-14,31.2-31.2S173.5,117.2,156.3,117.2z
	 M156.3,174.3c-14.3,0-25.9-11.6-25.9-25.9c0-14.3,11.6-25.9,25.9-25.9c14.3,0,25.9,11.6,25.9,25.9
	C182.1,162.7,170.5,174.3,156.3,174.3z"/>
<path class="st0" d="M170.5,145.7H159v-11.6c0-1.5-1.2-2.7-2.7-2.7s-2.7,1.2-2.7,2.7v11.6H142c-1.5,0-2.7,1.2-2.7,2.7
	c0,1.5,1.2,2.7,2.7,2.7h11.6v11.6c0,1.5,1.2,2.7,2.7,2.7s2.7-1.2,2.7-2.7v-11.6h11.6c1.5,0,2.7-1.2,2.7-2.7
	C173.2,146.9,172,145.7,170.5,145.7z"/>
<path class="st0" d="M47.8,68.7c-4.6,0-8.4,3.8-8.4,8.4s3.8,8.4,8.4,8.4s8.4-3.8,8.4-8.4S52.4,68.7,47.8,68.7z M47.8,80.1
	c-1.7,0-3-1.4-3-3s1.4-3,3-3s3,1.4,3,3S49.5,80.1,47.8,80.1z"/>
<path class="st0" d="M144.9,68.7H64.9c-1.5,0-2.7,1.2-2.7,2.7s1.2,2.7,2.7,2.7h79.9c1.5,0,2.7-1.2,2.7-2.7S146.3,68.7,144.9,68.7z"
	/>
<path class="st0" d="M64.9,85.4h5.7c1.5,0,2.7-1.2,2.7-2.7c0-1.5-1.2-2.7-2.7-2.7h-5.7c-1.5,0-2.7,1.2-2.7,2.7
	C62.2,84.2,63.4,85.4,64.9,85.4z"/>
<path class="st0" d="M104.9,85.4c1.5,0,2.7-1.2,2.7-2.7c0-1.5-1.2-2.7-2.7-2.7h-5.7c-1.5,0-2.7,1.2-2.7,2.7c0,1.5,1.2,2.7,2.7,2.7
	H104.9z"/>
<path class="st0" d="M87.8,85.4c1.5,0,2.7-1.2,2.7-2.7c0-1.5-1.2-2.7-2.7-2.7H82c-1.5,0-2.7,1.2-2.7,2.7c0,1.5,1.2,2.7,2.7,2.7H87.8
	z"/>
<path class="st0" d="M47.8,97.2c-4.6,0-8.4,3.8-8.4,8.4s3.8,8.4,8.4,8.4s8.4-3.8,8.4-8.4S52.4,97.2,47.8,97.2z M47.8,108.6
	c-1.7,0-3-1.4-3-3s1.4-3,3-3s3,1.4,3,3S49.5,108.6,47.8,108.6z"/>
<path class="st0" d="M147.5,99.9c0-1.5-1.2-2.7-2.7-2.7H64.9c-1.5,0-2.7,1.2-2.7,2.7s1.2,2.7,2.7,2.7h79.9
	C146.3,102.6,147.5,101.4,147.5,99.9z"/>
<path class="st0" d="M64.9,108.6c-1.5,0-2.7,1.2-2.7,2.7c0,1.5,1.2,2.7,2.7,2.7h5.7c1.5,0,2.7-1.2,2.7-2.7c0-1.5-1.2-2.7-2.7-2.7
	H64.9z"/>
<path class="st0" d="M99.2,108.6c-1.5,0-2.7,1.2-2.7,2.7c0,1.5,1.2,2.7,2.7,2.7h5.7c1.5,0,2.7-1.2,2.7-2.7c0-1.5-1.2-2.7-2.7-2.7
	H99.2z"/>
<path class="st0" d="M82,108.6c-1.5,0-2.7,1.2-2.7,2.7c0,1.5,1.2,2.7,2.7,2.7h5.7c1.5,0,2.7-1.2,2.7-2.7c0-1.5-1.2-2.7-2.7-2.7H82z"
	/>
<path class="st0" d="M47.8,125.8c-4.6,0-8.4,3.8-8.4,8.4c0,4.6,3.8,8.4,8.4,8.4s8.4-3.8,8.4-8.4C56.2,129.5,52.4,125.8,47.8,125.8z
	 M47.8,137.2c-1.7,0-3-1.4-3-3s1.4-3,3-3s3,1.4,3,3S49.5,137.2,47.8,137.2z"/>
<path class="st0" d="M119.2,125.8H64.9c-1.5,0-2.7,1.2-2.7,2.7c0,1.5,1.2,2.7,2.7,2.7h54.2c1.5,0,2.7-1.2,2.7-2.7
	C121.8,127,120.6,125.8,119.2,125.8z"/>
<path class="st0" d="M70.6,142.5c1.5,0,2.7-1.2,2.7-2.7c0-1.5-1.2-2.7-2.7-2.7h-5.7c-1.5,0-2.7,1.2-2.7,2.7c0,1.5,1.2,2.7,2.7,2.7
	H70.6z"/>
<path class="st0" d="M104.9,142.5c1.5,0,2.7-1.2,2.7-2.7c0-1.5-1.2-2.7-2.7-2.7h-5.7c-1.5,0-2.7,1.2-2.7,2.7c0,1.5,1.2,2.7,2.7,2.7
	H104.9z"/>
<path class="st0" d="M87.8,142.5c1.5,0,2.7-1.2,2.7-2.7c0-1.5-1.2-2.7-2.7-2.7H82c-1.5,0-2.7,1.2-2.7,2.7c0,1.5,1.2,2.7,2.7,2.7
	H87.8z"/>
</svg>
