<?xml version="1.0" encoding="iso-8859-1"?>
<!-- Generator: Adobe Illustrator 24.3.0, SVG Export Plug-In . SVG Version: 6.00 Build 0)  -->
<svg version="1.1" id="Capa_1" xmlns="http://www.w3.org/2000/svg" xmlns:xlink="http://www.w3.org/1999/xlink" x="0px" y="0px"
	 viewBox="0 0 200 200" style="enable-background:new 0 0 200 200;" xml:space="preserve">
<g>
	<path style="fill:#00FFFF;" d="M118.6,140.4c1.8,0,3.3-1.5,3.3-3.3s-1.5-3.3-3.3-3.3h-12c-1.8,0-3.3,1.5-3.3,3.3v26.1
		c0,1.8,1.5,3.3,3.3,3.3h12c1.8,0,3.3-1.5,3.3-3.3s-1.5-3.3-3.3-3.3h-8.8v-6.6h8.8c1.8,0,3.3-1.5,3.3-3.3s-1.5-3.3-3.3-3.3h-8.8
		v-6.6h8.8V140.4z"/>
	<path style="fill:#00FFFF;" d="M95.3,143.7c0-5.4-4.4-9.8-9.8-9.8h-9.7c-1.8,0-3.3,1.5-3.3,3.3v26.1c0,1.8,1.5,3.3,3.3,3.3
		s3.3-1.5,3.3-3.3v-9.8h4.4l5.6,11.3c0.6,1.1,1.7,1.8,2.9,1.8c0.5,0,1-0.1,1.5-0.3c1.6-0.8,2.3-2.8,1.5-4.4l-4.8-9.5
		C93.2,150.6,95.3,147.4,95.3,143.7L95.3,143.7z M79.1,140.4h6.4c1.8,0,3.3,1.5,3.3,3.3s-1.5,3.3-3.3,3.3h-6.4V140.4z"/>
	<path style="fill:#00FFFF;" d="M153.2,143.3c1.3,1.3,3.3,1.3,4.6,0s1.3-3.3,0-4.6c-6.4-6.4-16.7-6.4-23.1,0
		c-3.1,3.1-4.8,7.2-4.8,11.6c0,4.4,1.7,8.5,4.8,11.6c3.2,3.2,7.4,4.8,11.6,4.8c4.2,0,8.4-1.6,11.6-4.8c1.3-1.3,1.3-3.3,0-4.6
		s-3.3-1.3-4.6,0c-3.8,3.8-10.1,3.8-13.9,0c-1.9-1.9-2.9-4.3-2.9-6.9s1-5.1,2.9-6.9C143.2,139.4,149.4,139.4,153.2,143.3
		L153.2,143.3z"/>
	<path style="fill:#00FFFF;" d="M51.9,138.6c-6.4,0-11.6,5.2-11.6,11.6c0,6.4,5.2,11.6,11.6,11.6s11.6-5.2,11.6-11.6
		S58.3,138.6,51.9,138.6L51.9,138.6z M51.9,155.3c-2.8,0-5.1-2.3-5.1-5.1s2.3-5.1,5.1-5.1s5.1,2.3,5.1,5.1S54.7,155.3,51.9,155.3
		L51.9,155.3z"/>
	<path style="fill:#00FFFF;" d="M156.8,16.2H42.3c-11.8,0-21.4,9.6-21.4,21.4v26.9c0,1.8,1.5,3.3,3.3,3.3s3.3-1.5,3.3-3.3V37.6
		c0-8.2,6.7-14.9,14.9-14.9h114.5c8.2,0,14.9,6.7,14.9,14.9v79.8H27.4V93.8c0-1.8-1.5-3.3-3.3-3.3s-3.3,1.5-3.3,3.3v67.8
		c0,11.8,9.6,21.4,21.4,21.4h114.5c11.8,0,21.4-9.6,21.4-21.4v-124C178.2,25.8,168.6,16.2,156.8,16.2L156.8,16.2z M156.8,176.5H42.3
		c-8.2,0-14.9-6.7-14.9-14.9V124h144.3v37.6C171.7,169.8,165,176.5,156.8,176.5L156.8,176.5z"/>
	<path style="fill:#00FFFF;" d="M110.8,41.5H57.1c-5.1,0-9.2,4.1-9.2,9.2v38.8c0,5.1,4.1,9.2,9.2,9.2h53.7c5.1,0,9.2-4.1,9.2-9.2
		v-4.6l19.7,7.9c1.6,0.6,3.5,1.3,5.3,1.3c1.2,0,2.4-0.3,3.4-1c2.8-1.9,2.8-5.6,2.8-7V54.2c0-1.4,0-5.1-2.8-7c-2.6-1.8-6-0.8-8.7,0.3
		L120,55.3v-4.6C120,45.6,115.9,41.5,110.8,41.5L110.8,41.5z M110.8,92.2H57.1c-1.5,0-2.7-1.2-2.7-2.7V50.7c0-1.5,1.2-2.7,2.7-2.7
		h53.7c1.5,0,2.7,1.2,2.7,2.7v38.8C113.5,91,112.3,92.2,110.8,92.2L110.8,92.2z M142.1,53.5c1.3-0.5,2-0.7,2.5-0.8
		c0,0.3,0.1,0.8,0.1,1.4V86c0,0.7,0,1.1-0.1,1.4c-0.4-0.1-1.2-0.3-2.5-0.8L120,77.8V62.4L142.1,53.5z"/>
	<path style="fill:#00FFFF;" d="M100.5,77.1H67.4c-1.8,0-3.3,1.5-3.3,3.3s1.5,3.3,3.3,3.3h33.2c1.8,0,3.3-1.5,3.3-3.3
		C103.8,78.6,102.3,77.1,100.5,77.1L100.5,77.1z"/>
	<path style="fill:#00FFFF;" d="M68,64.3L68,64.3c1.8,0,3.3-1.5,3.3-3.3s-1.5-3.3-3.3-3.3s-3.3,1.5-3.3,3.3
		C64.8,62.9,66.2,64.3,68,64.3L68,64.3z"/>
	<path style="fill:#00FFFF;" d="M24.1,82.4c1.8,0,3.3-1.5,3.3-3.3s-1.5-3.3-3.3-3.3s-3.3,1.5-3.3,3.3l0,0
		C20.9,81,22.3,82.4,24.1,82.4L24.1,82.4z"/>
</g>
</svg>
