<?xml version="1.0" encoding="utf-8"?>
<!-- Generator: Adobe Illustrator 24.3.0, SVG Export Plug-In . SVG Version: 6.00 Build 0)  -->
<svg version="1.1" id="Capa_1" xmlns="http://www.w3.org/2000/svg" xmlns:xlink="http://www.w3.org/1999/xlink" x="0px" y="0px"
	 viewBox="0 0 512 512" style="enable-background:new 0 0 512 512;" xml:space="preserve">
<style type="text/css">
	.st0{fill:#7000E3;}
</style>
<g>
	<path class="st0" d="M457,0H55C24.7,0,0,24.7,0,55v402c0,30.3,24.7,55,55,55h402c30.3,0,55-24.7,55-55V55C512,24.7,487.3,0,457,0z
		 M30,55c0-13.8,11.2-25,25-25h402c13.8,0,25,11.2,25,25v287H30V55z M482,457c0,13.8-11.2,25-25,25H55c-13.8,0-25-11.2-25-25v-85
		h452V457z"/>
	<path class="st0" d="M76,442h205v5c0,8.3,6.7,15,15,15s15-6.7,15-15v-5h125c8.3,0,15-6.7,15-15s-6.7-15-15-15H311v-5
		c0-8.3-6.7-15-15-15s-15,6.7-15,15v5H76c-8.3,0-15,6.7-15,15S67.7,442,76,442z"/>
	<path class="st0" d="M430.2,130.6l-170-50c-2.8-0.8-5.7-0.8-8.5,0l-170,50C75.4,132.5,71,138.3,71,145s4.4,12.5,10.8,14.4
		l59.2,17.4V255c0,8.3,6.7,15,15,15h200c8.3,0,15-6.7,15-15v-78.2l40-11.8v70c0,8.3,6.7,15,15,15s15-6.7,15-15v-90
		C441,138.3,436.6,132.5,430.2,130.6z M341,240H171v-54.4l80.8,23.8c2.8,0.8,5.7,0.8,8.5,0l80.8-23.8V240z M256,179.4L139.2,145
		L256,110.6L372.8,145L256,179.4z"/>
</g>
</svg>
