<?xml version="1.0" encoding="utf-8"?>
<!-- Generator: Adobe Illustrator 24.3.0, SVG Export Plug-In . SVG Version: 6.00 Build 0)  -->
<svg version="1.1" id="Capa_1" xmlns="http://www.w3.org/2000/svg" xmlns:xlink="http://www.w3.org/1999/xlink" x="0px" y="0px"
	 viewBox="0 0 512 512" style="enable-background:new 0 0 512 512;" xml:space="preserve">
<style type="text/css">
	.st0{fill:#303030;}
</style>
<g>
	<g>
		<path class="st0" d="M469.7,429.5L296.2,256L469.7,82.5c11.1-11.1,11.1-29.1,0-40.2s-29.1-11.1-40.2,0L256,215.8L82.5,42.3
			c-11.1-11.1-29.1-11.1-40.2,0s-11.1,29.1,0,40.2L215.8,256L42.3,429.5c-11.1,11.1-11.1,29.1,0,40.2c5.5,5.5,12.8,8.3,20.1,8.3
			s14.5-2.8,20.1-8.3L256,296.2l173.5,173.5c5.5,5.5,12.8,8.3,20.1,8.3s14.5-2.8,20.1-8.3C480.8,458.6,480.8,440.6,469.7,429.5z"/>
	</g>
</g>
</svg>
