<?xml version="1.0" encoding="utf-8"?>
<!-- Generator: Adobe Illustrator 24.3.0, SVG Export Plug-In . SVG Version: 6.00 Build 0)  -->
<svg version="1.1" id="Layer_1" xmlns="http://www.w3.org/2000/svg" xmlns:xlink="http://www.w3.org/1999/xlink" x="0px" y="0px"
	 viewBox="0 0 512 512" style="enable-background:new 0 0 512 512;" xml:space="preserve">
<style type="text/css">
	.st0{fill:#7000E3;}
</style>
<path class="st0" d="M145.8,306c-2.1,0-4.2-0.5-6.2-1.4L29.2,249.3c-4.7-2.3-7.6-7.1-7.6-12.4V126.5c0-4.8,2.5-9.2,6.5-11.8
	c4.1-2.5,9.2-2.7,13.4-0.6L152,169.3c4.7,2.3,7.6,7.1,7.6,12.4v110.5c0,4.8-2.5,9.2-6.5,11.8C150.8,305.3,148.3,306,145.8,306
	L145.8,306z M49.1,228.4l82.8,41.4v-79.6l-82.8-41.4C49.1,148.8,49.1,228.4,49.1,228.4z"/>
<path class="st0" d="M145.8,306c-2.5,0-5-0.7-7.3-2.1c-4.1-2.5-6.5-7-6.5-11.8V181.7c0-5.2,3-10,7.6-12.4l110.5-55.2
	c4.3-2.1,9.4-1.9,13.4,0.6c4.1,2.5,6.5,7,6.5,11.8V237c0,5.2-3,10-7.6,12.4L152,304.5C150,305.5,147.9,306,145.8,306z M159.6,190.2
	v79.6l82.8-41.4v-79.6L159.6,190.2z"/>
<path class="st0" d="M145.8,195.5c-2.1,0-4.2-0.5-6.2-1.4L29.2,138.8c-4.7-2.3-7.6-7.1-7.6-12.4c0-5.2,3-10,7.6-12.4l110.5-55.2
	c3.9-1.9,8.5-1.9,12.4,0L262.6,114c4.7,2.3,7.6,7.1,7.6,12.4c0,5.2-3,10-7.6,12.4L152,194C150,195,147.9,195.5,145.8,195.5z
	 M66.2,126.5l79.6,39.8l79.6-39.8l-79.6-39.8L66.2,126.5z"/>
<path class="st0" d="M366.7,306c-2.1,0-4.2-0.5-6.2-1.4L250,249.4c-4.7-2.3-7.6-7.1-7.6-12.4V126.5c0-4.8,2.5-9.2,6.5-11.8
	c4.1-2.5,9.2-2.7,13.4-0.6l110.5,55.2c4.7,2.3,7.6,7.1,7.6,12.4v110.5c0,4.8-2.5,9.2-6.5,11.8C371.8,305.3,369.2,306,366.7,306
	L366.7,306z M270.1,228.4l82.8,41.4v-79.6l-82.8-41.4L270.1,228.4L270.1,228.4z"/>
<path class="st0" d="M366.7,306c-2.5,0-5-0.7-7.3-2.1c-4.1-2.5-6.5-7-6.5-11.8V181.7c0-5.2,3-10,7.6-12.4L471,114.1
	c4.3-2.1,9.4-1.9,13.4,0.6c4.1,2.5,6.5,7,6.5,11.8V237c0,5.2-3,10-7.6,12.4l-110.5,55.2C370.9,305.5,368.8,306,366.7,306z
	 M380.5,190.2v79.6l82.8-41.4v-79.6L380.5,190.2z"/>
<path class="st0" d="M366.7,195.5c-2.1,0-4.2-0.5-6.2-1.4L250,138.9c-4.7-2.3-7.6-7.1-7.6-12.4c0-5.2,3-10,7.6-12.4l110.5-55.2
	c3.9-1.9,8.5-1.9,12.4,0l110.5,55.2c4.7,2.3,7.6,7.1,7.6,12.4c0,5.2-3,10-7.6,12.4L372.9,194C370.9,195,368.8,195.5,366.7,195.5z
	 M287.1,126.5l79.6,39.8l79.6-39.8l-79.6-39.8L287.1,126.5z"/>
<path class="st0" d="M256.3,471.7c-2.1,0-4.2-0.5-6.2-1.4L139.6,415c-4.7-2.3-7.6-7.1-7.6-12.4V292.2c0-4.8,2.5-9.2,6.5-11.8
	c4.1-2.5,9.2-2.7,13.4-0.6L262.4,335c4.7,2.3,7.6,7.1,7.6,12.4v110.5c0,4.8-2.5,9.2-6.5,11.8C261.3,471,258.8,471.7,256.3,471.7
	L256.3,471.7z M159.6,394.1l82.8,41.4v-79.6l-82.8-41.4V394.1z"/>
<path class="st0" d="M256.3,471.7c-2.5,0-5-0.7-7.3-2.1c-4.1-2.5-6.5-7-6.5-11.8V347.4c0-5.2,3-10,7.6-12.4l110.5-55.2
	c4.3-2.1,9.4-1.9,13.4,0.6c4.1,2.5,6.5,7,6.5,11.8v110.5c0,5.2-3,10-7.6,12.4l-110.5,55.2C260.5,471.2,258.4,471.7,256.3,471.7
	L256.3,471.7z M270.1,355.9v79.6l82.8-41.4v-79.6L270.1,355.9z"/>
<path class="st0" d="M256.3,361.2c-2.1,0-4.2-0.5-6.2-1.4l-110.5-55.2c-4.7-2.3-7.6-7.1-7.6-12.4s3-10,7.6-12.4l110.5-55.2
	c3.9-1.9,8.5-1.9,12.4,0L373,279.8c4.7,2.3,7.6,7.1,7.6,12.4s-3,10-7.6,12.4l-110.5,55.2C260.5,360.7,258.4,361.2,256.3,361.2z
	 M176.7,292.2l79.6,39.8l79.6-39.8l-79.6-39.8L176.7,292.2z"/>
</svg>
