<?xml version="1.0" encoding="utf-8"?>
<!-- Generator: Adobe Illustrator 24.3.0, SVG Export Plug-In . SVG Version: 6.00 Build 0)  -->
<svg version="1.1" id="Bold" xmlns="http://www.w3.org/2000/svg" xmlns:xlink="http://www.w3.org/1999/xlink" x="0px" y="0px"
	 viewBox="0 0 512 512" style="enable-background:new 0 0 512 512;" xml:space="preserve">
<style type="text/css">
	.st0{fill:#FFFFFF;}
</style>
<g>
	<path class="st0" d="M136.5,212.1h-29.3c-3.7,0-7.2,1.5-9.8,4.1c-2.6,2.6-4.1,6.1-4,9.8l0.2,105.3c0,7.7,6.2,13.9,13.9,13.9
		c7.7,0,13.9-6.2,13.9-13.9v-32c5.7,0,11.7-0.1,15.3-0.1c24.4,0,44.2-19.5,44.2-43.6C180.7,231.6,160.9,212.1,136.5,212.1
		L136.5,212.1z M136.5,271.5c-3.6,0-9.6,0-15.3,0.1c0-5.9-0.1-12.2-0.1-15.9c0-3.1,0-9.7,0-15.9h15.4c8.9,0,16.4,7.3,16.4,15.9
		C153,264.3,145.4,271.5,136.5,271.5L136.5,271.5z M136.5,271.5"/>
	<path class="st0" d="M254.4,212.1h-28.9c-3.7,0-7.2,1.5-9.8,4.1c-2.6,2.6-4.1,6.1-4.1,9.8c0,0,0.2,101.9,0.2,102.2
		c0,3.7,1.5,7.2,4.1,9.8c2.6,2.6,6.1,4,9.8,4h0.1c0.9,0,21.5-0.1,29.8-0.2c31.3-0.5,54-27.8,54-64.7
		C309.5,238.2,287.4,212.1,254.4,212.1L254.4,212.1z M255,314.1c-3.6,0.1-9.8,0.1-15.5,0.1c0-12-0.1-61.9-0.1-74.4h15.1
		c25.4,0,27.4,28.5,27.4,37.2C281.8,295.2,273.5,313.7,255,314.1L255,314.1z M255,314.1"/>
	<path class="st0" d="M400.8,238.7c7.7,0,13.9-6.2,13.9-13.9c0-7.7-6.2-13.9-13.9-13.9h-42.4c-7.7,0-13.9,6.2-13.9,13.9v104.5
		c0,7.7,6.2,13.9,13.9,13.9c7.7,0,13.9-6.2,13.9-13.9V290h25.1c7.7,0,13.9-6.2,13.9-13.9c0-7.7-6.2-13.9-13.9-13.9h-25.1v-23.6
		H400.8z M400.8,238.7"/>
	<path class="st0" d="M441.6,153h-10.2v-4c0-17.8-6.8-34.7-19-47.7l-57.6-60.7c-13-13.7-31.4-21.6-50.3-21.6H120.1
		c-22.9,0-41.6,18.7-41.6,41.6V153H68.4c-22.9,0-41.6,18.7-41.6,41.6v166.3c0,22.9,18.7,41.6,41.6,41.6h10.2v48
		c0,22.9,18.7,41.6,41.6,41.6h269.8c22.9,0,41.6-18.7,41.6-41.6v-48h10.2c22.9,0,41.6-18.7,41.6-41.6V194.5
		C483.2,171.6,464.5,153,441.6,153L441.6,153z M106.3,60.6c0-7.6,6.2-13.9,13.9-13.9h184.5c11.4,0,22.4,4.7,30.2,13l57.6,60.7
		c7.4,7.8,11.4,17.9,11.4,28.6v4H106.3V60.6z M403.7,450.4c0,7.6-6.2,13.9-13.9,13.9H120.1c-7.6,0-13.9-6.2-13.9-13.9v-48h297.5
		V450.4z M455.5,360.8c0,7.6-6.2,13.9-13.9,13.9H68.4c-7.6,0-13.9-6.2-13.9-13.9V194.5c0-7.6,6.2-13.9,13.9-13.9h373.2
		c7.6,0,13.9,6.2,13.9,13.9V360.8z M455.5,360.8"/>
</g>
</svg>
