<?xml version="1.0" encoding="utf-8"?>
<!-- Generator: Adobe Illustrator 24.3.0, SVG Export Plug-In . SVG Version: 6.00 Build 0)  -->
<svg version="1.1" id="Capa_1" xmlns="http://www.w3.org/2000/svg" xmlns:xlink="http://www.w3.org/1999/xlink" x="0px" y="0px"
	 viewBox="0 0 415.1 415.1" style="enable-background:new 0 0 415.1 415.1;" xml:space="preserve">
<style type="text/css">
	.st0{fill:#00FFFF;}
</style>
<g>
	<g>
		<path class="st0" d="M140.3,344.9c-10.5,0-21-2.8-30.5-8.3c-19.1-11-30.5-30.8-30.5-52.9V121c0-22.1,11.4-41.8,30.5-52.9
			c19.1-11,41.9-11,61,0l141,81.4c19.1,11,30.5,30.8,30.5,52.9s-11.4,41.8-30.5,52.9l-141,81.4C161.3,342.2,150.8,344.9,140.3,344.9
			z M140.3,71.6c-8.5,0-16.9,2.2-24.7,6.7C100.2,87.2,91,103.2,91,121v162.8c0,17.8,9.2,33.8,24.7,42.7c15.4,8.9,33.9,8.9,49.3,0
			l141-81.4c15.4-8.9,24.7-24.9,24.7-42.7s-9.2-33.8-24.7-42.7L165,78.3C157.2,73.8,148.8,71.6,140.3,71.6z"/>
	</g>
</g>
</svg>
